<?xml version="1.0" encoding="utf-8"?>
<!-- Generator: Adobe Illustrator 28.0.0, SVG Export Plug-In . SVG Version: 6.00 Build 0)  -->
<svg version="1.1" xmlns="http://www.w3.org/2000/svg" xmlns:xlink="http://www.w3.org/1999/xlink" x="0px" y="0px"
	 viewBox="0 0 330 50" style="enable-background:new 0 0 330 50;" xml:space="preserve">
<style type="text/css">
	.st0{fill:#FFFFFF;}
	.st1{font-family:'HelveticaNeue-MediumItalic';}
	.st2{font-size:12px;}
	.st3{font-family:'HelveticaNeue-Medium';}
	.st4{font-size:19px;}
	.st5{display:none;}
	.st6{display:inline;}
	.st7{display:inline;fill:#316094;}
	.st8{fill:#316094;}
	.st9{fill:#636569;}
	.st10{display:inline;fill:#FFFFFF;}
	.st11{display:inline;fill:#101212;}
</style>
<g id="Master">
	<g id="Taglines">
		<g id="_x5B_nih_x5D_-tagline">
			<g id="_x5B_nih_x5D_-tagline-white">
				<text transform="matrix(1 0 0 1 88.1514 44.5361)" class="st0 st1 st2">Turning Discovery Into Health</text>
				<text transform="matrix(1 0 0 1 86.8022 30.4648)" class="st0 st3 st4">National Institutes of Health</text>
			</g>
			<g id="_x5B_nih_x5D_-tagline-black" class="st5">
				<text transform="matrix(1 0 0 1 88.1514 44.5361)" class="st6 st1 st2">Turning Discovery Into Health</text>
				<text transform="matrix(1 0 0 1 86.8022 30.4648)" class="st6 st3 st4">National Institutes of Health</text>
			</g>
			<g id="_x5B_nih_x5D_-tagline-blue" class="st5">
				<text transform="matrix(1 0 0 1 88.1514 44.5361)" class="st7 st1 st2">Turning Discovery Into Health</text>
				<text transform="matrix(1 0 0 1 86.8022 30.4648)" class="st7 st3 st4">National Institutes of Health</text>
			</g>
			<g id="_x5B_nih_x5D_-tagline_1_">
				<g>
					<path class="st8" d="M89.1,35.97h7.06l-0.28,1.3h-2.72l-1.51,7.27h-1.5l1.51-7.27h-2.82L89.1,35.97z"/>
					<path class="st8" d="M99.08,44.54H97.8l0.19-0.9l-0.02-0.02c-0.25,0.34-0.56,0.61-0.93,0.8c-0.37,0.19-0.77,0.29-1.21,0.29
						c-0.62,0-1.08-0.15-1.37-0.44s-0.44-0.7-0.44-1.2c0-0.11,0-0.24,0.01-0.38c0.01-0.14,0.02-0.27,0.05-0.38l0.83-3.96h1.37
						l-0.79,3.83c-0.02,0.1-0.05,0.2-0.07,0.3s-0.03,0.19-0.03,0.28c0,0.05,0,0.12,0.01,0.22c0,0.1,0.03,0.2,0.09,0.3
						c0.06,0.1,0.15,0.19,0.28,0.26c0.13,0.07,0.32,0.11,0.58,0.11c0.26,0,0.51-0.06,0.73-0.17c0.22-0.12,0.41-0.27,0.58-0.45
						s0.31-0.39,0.42-0.62c0.11-0.23,0.19-0.46,0.24-0.69l0.7-3.36h1.37L99.08,44.54z"/>
					<path class="st8" d="M101.72,38.33h1.3l-0.25,1.21l0.02,0.02c0.1-0.17,0.21-0.34,0.35-0.5c0.14-0.17,0.29-0.32,0.46-0.45
						c0.17-0.13,0.35-0.24,0.55-0.32c0.2-0.08,0.4-0.13,0.62-0.13c0.11,0,0.22,0,0.33,0.01s0.22,0.01,0.33,0.03l-0.29,1.31
						c-0.08-0.02-0.16-0.03-0.24-0.04s-0.16-0.01-0.24-0.01c-0.35,0-0.66,0.06-0.92,0.19c-0.26,0.12-0.48,0.29-0.66,0.51
						c-0.18,0.22-0.33,0.46-0.44,0.74c-0.11,0.28-0.2,0.58-0.26,0.89l-0.58,2.75h-1.37L101.72,38.33z"/>
					<path class="st8" d="M106.04,38.33h1.28l-0.19,0.9l0.02,0.02c0.25-0.34,0.56-0.61,0.93-0.8c0.37-0.19,0.77-0.29,1.21-0.29
						c0.62,0,1.08,0.15,1.37,0.44c0.29,0.3,0.44,0.7,0.44,1.2c0,0.11,0,0.24-0.01,0.38c-0.01,0.14-0.02,0.27-0.05,0.38l-0.83,3.96
						h-1.37l0.79-3.83c0.02-0.1,0.05-0.2,0.07-0.3c0.02-0.1,0.03-0.19,0.03-0.28c0-0.05,0-0.12-0.01-0.22c0-0.1-0.03-0.2-0.09-0.3
						c-0.06-0.1-0.15-0.19-0.28-0.26c-0.13-0.07-0.32-0.11-0.57-0.11c-0.27,0-0.51,0.06-0.73,0.17c-0.21,0.12-0.4,0.26-0.57,0.43
						c-0.16,0.16-0.3,0.36-0.41,0.59c-0.12,0.24-0.2,0.48-0.26,0.74l-0.7,3.36h-1.37L106.04,38.33z"/>
					<path class="st8" d="M112.81,38.33h1.37l-1.28,6.2h-1.37L112.81,38.33z M113.3,35.97h1.36l-0.26,1.3h-1.36L113.3,35.97z"/>
					<path class="st8" d="M115.58,38.33h1.28l-0.19,0.9l0.02,0.02c0.25-0.34,0.56-0.61,0.93-0.8c0.37-0.19,0.77-0.29,1.21-0.29
						c0.62,0,1.08,0.15,1.37,0.44c0.29,0.3,0.44,0.7,0.44,1.2c0,0.11,0,0.24-0.01,0.38c-0.01,0.14-0.02,0.27-0.05,0.38l-0.83,3.96
						h-1.37l0.79-3.83c0.02-0.1,0.05-0.2,0.07-0.3c0.02-0.1,0.03-0.19,0.03-0.28c0-0.05,0-0.12-0.01-0.22c0-0.1-0.03-0.2-0.09-0.3
						c-0.06-0.1-0.15-0.19-0.28-0.26c-0.13-0.07-0.32-0.11-0.57-0.11c-0.27,0-0.51,0.06-0.73,0.17c-0.21,0.12-0.4,0.26-0.57,0.43
						c-0.16,0.16-0.3,0.36-0.41,0.59c-0.12,0.24-0.2,0.48-0.26,0.74l-0.7,3.36h-1.37L115.58,38.33z"/>
					<path class="st8" d="M126.75,44.37c-0.1,0.47-0.23,0.88-0.39,1.21c-0.16,0.34-0.36,0.61-0.6,0.82
						c-0.24,0.21-0.54,0.36-0.89,0.46c-0.35,0.1-0.77,0.14-1.25,0.14c-0.35,0-0.69-0.04-1-0.11c-0.32-0.07-0.6-0.19-0.84-0.34
						s-0.44-0.36-0.59-0.61s-0.23-0.56-0.23-0.92h1.37c0.02,0.35,0.16,0.6,0.43,0.74c0.27,0.14,0.6,0.22,0.99,0.22
						c0.3,0,0.56-0.04,0.76-0.13c0.2-0.09,0.37-0.21,0.5-0.36c0.13-0.15,0.23-0.33,0.31-0.55c0.07-0.21,0.14-0.45,0.19-0.7
						l0.13-0.61l-0.02-0.02c-0.43,0.62-1.02,0.94-1.75,0.94c-0.78,0-1.37-0.23-1.79-0.68c-0.42-0.45-0.62-1.07-0.62-1.87
						c0-0.46,0.07-0.93,0.21-1.39c0.14-0.46,0.34-0.87,0.61-1.23s0.6-0.65,1-0.88c0.4-0.22,0.86-0.34,1.38-0.34
						c0.46,0,0.85,0.09,1.18,0.28c0.33,0.18,0.58,0.49,0.74,0.92h0.02l0.18-1.03h1.3L126.75,44.37z M122.81,41.92
						c0,0.21,0.02,0.41,0.07,0.59c0.05,0.19,0.12,0.35,0.23,0.49s0.24,0.25,0.4,0.33s0.36,0.12,0.59,0.12
						c0.37,0,0.68-0.08,0.94-0.25c0.26-0.17,0.47-0.38,0.64-0.65c0.17-0.26,0.29-0.56,0.37-0.89c0.08-0.33,0.11-0.65,0.11-0.96
						c0-0.46-0.12-0.81-0.35-1.07s-0.58-0.39-1.03-0.39c-0.34,0-0.63,0.09-0.88,0.26c-0.25,0.17-0.45,0.39-0.62,0.65
						c-0.16,0.26-0.29,0.55-0.37,0.87C122.85,41.34,122.81,41.64,122.81,41.92z"/>
					<path class="st8" d="M133.23,35.97h3.14c1.1,0,1.94,0.3,2.51,0.89c0.57,0.6,0.85,1.49,0.85,2.69c0,0.26-0.03,0.54-0.08,0.86
						s-0.14,0.64-0.25,0.96c-0.11,0.32-0.25,0.64-0.42,0.94c-0.17,0.3-0.37,0.56-0.6,0.79c-0.26,0.25-0.5,0.46-0.74,0.64
						c-0.24,0.18-0.51,0.33-0.8,0.45c-0.3,0.12-0.63,0.21-1.01,0.26s-0.84,0.08-1.37,0.08h-3.01L133.23,35.97z M133.2,43.31h1.87
						c0.43,0,0.81-0.07,1.13-0.22c0.32-0.15,0.6-0.34,0.83-0.56c0.23-0.23,0.43-0.49,0.58-0.77c0.16-0.29,0.28-0.57,0.37-0.85
						c0.09-0.28,0.16-0.54,0.19-0.78c0.04-0.24,0.05-0.44,0.05-0.58c0-0.75-0.16-1.33-0.49-1.74c-0.33-0.41-0.79-0.61-1.39-0.61
						h-1.87L133.2,43.31z"/>
					<path class="st8" d="M141.11,38.33h1.37l-1.28,6.2h-1.37L141.11,38.33z M141.6,35.97h1.36l-0.26,1.3h-1.36L141.6,35.97z"/>
					<path class="st8" d="M146.99,40.14c-0.01-0.31-0.13-0.54-0.35-0.68c-0.23-0.14-0.53-0.22-0.89-0.22
						c-0.14,0-0.27,0.01-0.39,0.04c-0.12,0.02-0.24,0.07-0.34,0.13c-0.1,0.06-0.18,0.14-0.24,0.24c-0.06,0.1-0.09,0.23-0.09,0.38
						c0,0.14,0.05,0.26,0.16,0.35s0.25,0.17,0.43,0.23c0.18,0.07,0.37,0.13,0.59,0.19c0.22,0.06,0.43,0.13,0.65,0.21
						c0.18,0.07,0.36,0.15,0.54,0.24c0.18,0.09,0.33,0.2,0.46,0.32s0.24,0.28,0.32,0.46c0.08,0.18,0.12,0.39,0.12,0.64
						c0,0.36-0.08,0.67-0.24,0.92c-0.16,0.26-0.37,0.47-0.62,0.64c-0.26,0.17-0.55,0.29-0.88,0.37s-0.67,0.11-1,0.11
						c-0.36,0-0.7-0.03-1.01-0.1c-0.31-0.07-0.58-0.18-0.82-0.35c-0.23-0.16-0.42-0.38-0.55-0.66c-0.14-0.28-0.21-0.63-0.22-1.05
						h1.3c-0.02,0.39,0.11,0.67,0.37,0.83c0.26,0.16,0.6,0.25,1,0.25c0.14,0,0.29-0.01,0.44-0.04c0.15-0.03,0.29-0.07,0.42-0.14
						c0.13-0.06,0.23-0.15,0.32-0.27s0.13-0.26,0.13-0.44c0-0.16-0.06-0.29-0.17-0.4c-0.12-0.1-0.26-0.19-0.44-0.27
						c-0.18-0.08-0.38-0.15-0.61-0.21c-0.23-0.06-0.45-0.14-0.67-0.22c-0.18-0.06-0.36-0.14-0.52-0.23s-0.31-0.19-0.44-0.32
						s-0.23-0.27-0.3-0.44c-0.07-0.17-0.11-0.37-0.11-0.6c0-0.34,0.07-0.62,0.22-0.86c0.15-0.24,0.34-0.44,0.58-0.59
						c0.24-0.15,0.51-0.26,0.82-0.34c0.3-0.07,0.62-0.11,0.94-0.11c0.34,0,0.65,0.03,0.95,0.09s0.55,0.17,0.77,0.32
						c0.22,0.15,0.39,0.36,0.52,0.61c0.12,0.26,0.18,0.58,0.17,0.96H146.99z"/>
					<path class="st8" d="M153.39,40.38c0.02-0.38-0.09-0.67-0.31-0.86c-0.22-0.19-0.53-0.28-0.91-0.28c-0.34,0-0.64,0.09-0.9,0.26
						s-0.47,0.4-0.64,0.67c-0.17,0.27-0.29,0.57-0.38,0.89c-0.08,0.32-0.13,0.63-0.13,0.93c0,0.23,0.02,0.45,0.07,0.64
						c0.05,0.2,0.13,0.37,0.23,0.51c0.11,0.14,0.25,0.26,0.43,0.34c0.18,0.08,0.39,0.13,0.65,0.13c0.41,0,0.74-0.11,1-0.32
						c0.26-0.22,0.45-0.52,0.56-0.9h1.37c-0.22,0.8-0.6,1.38-1.13,1.75c-0.53,0.37-1.2,0.55-2.03,0.55c-0.41,0-0.77-0.06-1.08-0.19
						s-0.57-0.31-0.79-0.55c-0.21-0.24-0.37-0.52-0.49-0.84c-0.11-0.32-0.17-0.68-0.17-1.07c0-0.52,0.08-1.02,0.24-1.49
						c0.16-0.47,0.39-0.89,0.7-1.24c0.3-0.36,0.67-0.64,1.11-0.85s0.93-0.31,1.48-0.31c0.34,0,0.67,0.05,0.97,0.14
						c0.3,0.1,0.57,0.24,0.79,0.42c0.22,0.18,0.4,0.42,0.53,0.7s0.19,0.6,0.18,0.96H153.39z"/>
					<path class="st8" d="M158.03,44.7c-0.86,0-1.53-0.23-2-0.7c-0.47-0.47-0.71-1.14-0.71-2.01c0-0.51,0.08-1,0.25-1.46
						s0.41-0.87,0.71-1.22c0.31-0.35,0.68-0.63,1.12-0.84s0.92-0.31,1.46-0.31c0.86,0,1.53,0.23,2,0.68s0.71,1.11,0.71,1.99
						c0,0.54-0.08,1.05-0.24,1.52c-0.16,0.47-0.39,0.88-0.7,1.23c-0.31,0.35-0.68,0.62-1.12,0.82
						C159.07,44.6,158.58,44.7,158.03,44.7z M158.77,39.24c-0.35,0-0.66,0.09-0.92,0.26c-0.26,0.18-0.48,0.4-0.65,0.67
						c-0.18,0.27-0.31,0.57-0.39,0.89s-0.13,0.65-0.13,0.96c0,0.46,0.11,0.84,0.34,1.14s0.59,0.46,1.09,0.46
						c0.35,0,0.66-0.09,0.92-0.26s0.48-0.39,0.65-0.66c0.18-0.27,0.31-0.57,0.39-0.9s0.13-0.65,0.13-0.97
						c0-0.46-0.11-0.84-0.34-1.14C159.63,39.4,159.27,39.24,158.77,39.24z"/>
					<path class="st8" d="M162.57,38.33h1.42l0.52,4.52h0.02l2.4-4.52h1.44l-3.43,6.2h-1.52L162.57,38.33z"/>
					<path class="st8" d="M173.87,42.62c-0.22,0.73-0.58,1.26-1.09,1.59s-1.14,0.5-1.9,0.5c-0.39,0-0.75-0.06-1.09-0.19
						s-0.62-0.3-0.86-0.54c-0.24-0.24-0.43-0.52-0.56-0.85c-0.14-0.33-0.2-0.71-0.2-1.13c0-0.48,0.08-0.95,0.23-1.4
						s0.37-0.86,0.67-1.22c0.29-0.36,0.65-0.65,1.08-0.87s0.92-0.33,1.47-0.33s1,0.09,1.34,0.28c0.34,0.18,0.61,0.42,0.8,0.7
						c0.19,0.28,0.32,0.59,0.39,0.92c0.07,0.34,0.1,0.66,0.1,0.96c0,0.15-0.01,0.29-0.03,0.42c-0.02,0.13-0.03,0.24-0.05,0.35h-4.62
						c-0.01,0.04-0.01,0.08-0.02,0.11c0,0.03-0.01,0.06-0.01,0.1v0.19c0,0.43,0.11,0.78,0.34,1.04c0.23,0.26,0.61,0.4,1.13,0.4
						c0.37,0,0.68-0.08,0.95-0.25s0.45-0.42,0.54-0.76H173.87z M172.87,40.89c0.01-0.04,0.01-0.07,0.01-0.1s0-0.06,0-0.09V40.5
						c0-0.37-0.12-0.67-0.35-0.91c-0.23-0.24-0.55-0.35-0.96-0.35c-0.51,0-0.92,0.15-1.22,0.46s-0.52,0.7-0.66,1.18H172.87z"/>
					<path class="st8" d="M175.74,38.33h1.3l-0.25,1.21l0.02,0.02c0.1-0.17,0.21-0.34,0.35-0.5c0.14-0.17,0.29-0.32,0.46-0.45
						c0.17-0.13,0.35-0.24,0.55-0.32c0.2-0.08,0.4-0.13,0.62-0.13c0.11,0,0.22,0,0.33,0.01c0.11,0,0.22,0.01,0.33,0.03l-0.29,1.31
						c-0.08-0.02-0.16-0.03-0.24-0.04c-0.08-0.01-0.16-0.01-0.24-0.01c-0.35,0-0.66,0.06-0.92,0.19s-0.48,0.29-0.66,0.51
						c-0.18,0.22-0.33,0.46-0.44,0.74c-0.11,0.28-0.2,0.58-0.26,0.89l-0.58,2.75h-1.37L175.74,38.33z"/>
					<path class="st8" d="M179.27,38.33h1.44l0.65,4.54h0.02l2.34-4.54h1.46l-3.55,6.4c-0.16,0.3-0.32,0.58-0.47,0.85
						c-0.15,0.27-0.33,0.51-0.52,0.73s-0.43,0.38-0.69,0.5c-0.26,0.12-0.59,0.19-0.97,0.19c-0.23,0-0.51-0.03-0.83-0.1l0.25-1.14
						c0.09,0.02,0.18,0.05,0.26,0.07c0.09,0.02,0.18,0.03,0.26,0.03c0.21,0,0.39-0.04,0.53-0.11c0.15-0.08,0.27-0.21,0.35-0.41
						l0.54-1L179.27,38.33z"/>
					<path class="st8" d="M189.85,35.97h1.5l-1.79,8.57h-1.5L189.85,35.97z"/>
					<path class="st8" d="M192.37,38.33h1.28l-0.19,0.9l0.02,0.02c0.25-0.34,0.56-0.61,0.93-0.8c0.37-0.19,0.77-0.29,1.21-0.29
						c0.62,0,1.08,0.15,1.37,0.44c0.29,0.3,0.44,0.7,0.44,1.2c0,0.11,0,0.24-0.01,0.38c-0.01,0.14-0.02,0.27-0.05,0.38l-0.83,3.96
						h-1.37l0.79-3.83c0.02-0.1,0.05-0.2,0.07-0.3c0.02-0.1,0.03-0.19,0.03-0.28c0-0.05,0-0.12-0.01-0.22c0-0.1-0.03-0.2-0.09-0.3
						c-0.06-0.1-0.15-0.19-0.28-0.26c-0.13-0.07-0.32-0.11-0.57-0.11c-0.27,0-0.51,0.06-0.73,0.17s-0.4,0.26-0.57,0.43
						c-0.16,0.16-0.3,0.36-0.41,0.59c-0.12,0.24-0.2,0.48-0.26,0.74l-0.7,3.36h-1.37L192.37,38.33z"/>
					<path class="st8" d="M199.91,36.47h1.33l-0.38,1.86h1.24l-0.22,1.02h-1.24L200,42.39c-0.03,0.14-0.06,0.26-0.08,0.38
						c-0.02,0.12-0.04,0.22-0.04,0.29c0,0.14,0.03,0.25,0.09,0.33c0.06,0.08,0.19,0.13,0.4,0.13c0.1,0,0.22,0,0.34-0.01
						s0.25-0.02,0.39-0.05l-0.23,1.01c-0.18,0.04-0.36,0.07-0.56,0.1c-0.2,0.02-0.39,0.04-0.56,0.04c-0.25,0-0.45-0.03-0.61-0.1
						c-0.16-0.06-0.29-0.15-0.38-0.26c-0.09-0.11-0.16-0.23-0.19-0.37s-0.05-0.28-0.05-0.43c0-0.12,0.01-0.25,0.03-0.4
						s0.04-0.24,0.05-0.3l0.71-3.4h-1.08l0.22-1.02h1.08L199.91,36.47z"/>
					<path class="st8" d="M204.73,44.7c-0.86,0-1.53-0.23-2-0.7c-0.47-0.47-0.71-1.14-0.71-2.01c0-0.51,0.08-1,0.25-1.46
						c0.17-0.46,0.41-0.87,0.71-1.22c0.31-0.35,0.68-0.63,1.12-0.84c0.44-0.21,0.92-0.31,1.46-0.31c0.86,0,1.53,0.23,2,0.68
						c0.47,0.45,0.71,1.11,0.71,1.99c0,0.54-0.08,1.05-0.24,1.52c-0.16,0.47-0.39,0.88-0.7,1.23c-0.31,0.35-0.68,0.62-1.12,0.82
						C205.78,44.6,205.28,44.7,204.73,44.7z M205.47,39.24c-0.35,0-0.66,0.09-0.92,0.26s-0.48,0.4-0.65,0.67
						c-0.18,0.27-0.31,0.57-0.39,0.89s-0.13,0.65-0.13,0.96c0,0.46,0.11,0.84,0.34,1.14c0.23,0.3,0.59,0.46,1.09,0.46
						c0.35,0,0.66-0.09,0.92-0.26c0.26-0.17,0.48-0.39,0.65-0.66c0.18-0.27,0.31-0.57,0.39-0.9s0.13-0.65,0.13-0.97
						c0-0.46-0.11-0.84-0.34-1.14C206.33,39.4,205.97,39.24,205.47,39.24z"/>
					<path class="st8" d="M213.79,35.97h1.5l-0.71,3.41h4.01l0.71-3.41h1.5l-1.78,8.57h-1.5l0.8-3.86h-4.01l-0.8,3.86h-1.5
						L213.79,35.97z"/>
					<path class="st8" d="M226.45,42.62c-0.22,0.73-0.58,1.26-1.09,1.59c-0.51,0.33-1.14,0.5-1.9,0.5c-0.39,0-0.75-0.06-1.09-0.19
						s-0.62-0.3-0.86-0.54c-0.24-0.24-0.43-0.52-0.56-0.85c-0.14-0.33-0.2-0.71-0.2-1.13c0-0.48,0.08-0.95,0.23-1.4
						c0.15-0.46,0.37-0.86,0.67-1.22c0.29-0.36,0.65-0.65,1.08-0.87s0.92-0.33,1.47-0.33c0.55,0,1,0.09,1.34,0.28
						c0.34,0.18,0.61,0.42,0.8,0.7s0.32,0.59,0.39,0.92c0.07,0.34,0.1,0.66,0.1,0.96c0,0.15-0.01,0.29-0.02,0.42
						c-0.02,0.13-0.03,0.24-0.05,0.35h-4.62c-0.01,0.04-0.01,0.08-0.02,0.11c0,0.03-0.01,0.06-0.01,0.1v0.19
						c0,0.43,0.11,0.78,0.34,1.04c0.23,0.26,0.61,0.4,1.13,0.4c0.37,0,0.68-0.08,0.95-0.25s0.44-0.42,0.54-0.76H226.45z
						 M225.45,40.89c0.01-0.04,0.01-0.07,0.01-0.1s0-0.06,0-0.09V40.5c0-0.37-0.12-0.67-0.35-0.91c-0.23-0.24-0.55-0.35-0.96-0.35
						c-0.51,0-0.92,0.15-1.22,0.46c-0.3,0.31-0.52,0.7-0.66,1.18H225.45z"/>
					<path class="st8" d="M232.56,42.74c-0.02,0.11-0.05,0.22-0.08,0.32c-0.03,0.1-0.04,0.2-0.04,0.29s0.02,0.16,0.06,0.2
						c0.04,0.05,0.12,0.07,0.23,0.07c0.08,0,0.16-0.01,0.24-0.03c0.08-0.02,0.16-0.03,0.24-0.04l-0.22,0.98
						c-0.18,0.04-0.35,0.08-0.53,0.11c-0.18,0.04-0.36,0.05-0.54,0.05c-0.23,0-0.42-0.07-0.58-0.22c-0.15-0.14-0.24-0.34-0.25-0.58
						c-0.27,0.27-0.59,0.47-0.96,0.6s-0.74,0.19-1.13,0.19c-0.26,0-0.5-0.04-0.73-0.11c-0.23-0.07-0.44-0.18-0.62-0.31
						c-0.18-0.14-0.32-0.31-0.43-0.52c-0.1-0.21-0.16-0.45-0.16-0.72c0-0.38,0.07-0.71,0.22-0.97c0.14-0.26,0.34-0.47,0.58-0.64
						c0.24-0.17,0.52-0.29,0.83-0.37c0.31-0.08,0.64-0.13,0.98-0.16c0.46-0.03,0.92-0.07,1.37-0.11c0.25-0.02,0.43-0.1,0.55-0.25
						c0.12-0.15,0.17-0.34,0.17-0.57c0-0.3-0.1-0.49-0.31-0.59c-0.21-0.1-0.45-0.15-0.73-0.15c-0.38,0-0.71,0.07-0.99,0.2
						c-0.28,0.13-0.46,0.39-0.56,0.77h-1.3c0.07-0.38,0.2-0.71,0.37-0.97c0.18-0.26,0.39-0.47,0.65-0.64s0.55-0.28,0.87-0.35
						c0.32-0.07,0.67-0.1,1.04-0.1c0.56,0,1,0.05,1.31,0.16c0.32,0.11,0.55,0.24,0.7,0.39c0.15,0.15,0.24,0.31,0.27,0.47
						c0.03,0.16,0.05,0.3,0.05,0.41c0,0.27-0.04,0.58-0.12,0.94L232.56,42.74z M228.44,42.83c0,0.15,0.03,0.28,0.1,0.38
						c0.07,0.1,0.15,0.18,0.26,0.24c0.1,0.06,0.22,0.1,0.35,0.13s0.26,0.04,0.38,0.04c0.34,0,0.62-0.06,0.85-0.17
						c0.23-0.11,0.42-0.26,0.56-0.46c0.15-0.19,0.26-0.42,0.35-0.68s0.15-0.54,0.2-0.83l-0.02-0.02c-0.1,0.1-0.22,0.16-0.38,0.2
						c-0.16,0.04-0.32,0.07-0.47,0.08c-0.19,0.02-0.41,0.03-0.67,0.05c-0.25,0.02-0.49,0.06-0.71,0.13
						c-0.22,0.07-0.41,0.17-0.56,0.31C228.52,42.38,228.44,42.58,228.44,42.83z"/>
					<path class="st8" d="M235.37,35.97h1.37l-1.78,8.57h-1.37L235.37,35.97z"/>
					<path class="st8" d="M238.41,36.47h1.33l-0.38,1.86h1.24l-0.22,1.02h-1.24l-0.64,3.04c-0.03,0.14-0.06,0.26-0.08,0.38
						c-0.02,0.12-0.04,0.22-0.04,0.29c0,0.14,0.03,0.25,0.09,0.33c0.06,0.08,0.19,0.13,0.4,0.13c0.1,0,0.22,0,0.34-0.01
						s0.25-0.02,0.39-0.05l-0.23,1.01c-0.18,0.04-0.36,0.07-0.56,0.1c-0.2,0.02-0.39,0.04-0.56,0.04c-0.25,0-0.45-0.03-0.61-0.1
						c-0.16-0.06-0.29-0.15-0.38-0.26c-0.09-0.11-0.16-0.23-0.19-0.37s-0.05-0.28-0.05-0.43c0-0.12,0.01-0.25,0.03-0.4
						s0.04-0.24,0.05-0.3l0.71-3.4h-1.08l0.22-1.02h1.08L238.41,36.47z"/>
					<path class="st8" d="M242.01,35.97h1.37l-0.67,3.24h0.02c0.23-0.31,0.53-0.56,0.9-0.76c0.37-0.19,0.75-0.29,1.14-0.29
						c0.62,0,1.08,0.15,1.37,0.44c0.29,0.3,0.44,0.7,0.44,1.2c0,0.11,0,0.24-0.01,0.38c-0.01,0.14-0.02,0.27-0.05,0.38l-0.83,3.96
						h-1.37l0.79-3.83c0.02-0.1,0.05-0.2,0.07-0.3c0.02-0.1,0.03-0.19,0.03-0.28c0-0.05,0-0.12-0.01-0.22c0-0.1-0.03-0.2-0.09-0.3
						c-0.06-0.1-0.15-0.19-0.28-0.26c-0.13-0.07-0.32-0.11-0.57-0.11c-0.27,0-0.51,0.06-0.73,0.17s-0.4,0.26-0.57,0.43
						c-0.16,0.16-0.3,0.36-0.41,0.59c-0.12,0.24-0.2,0.48-0.26,0.74l-0.7,3.36h-1.37L242.01,35.97z"/>
				</g>
				<g>
					<path class="st9" d="M88.15,16.9h2.51l6.19,9.99h0.04V16.9h2.26v13.57h-2.51l-6.17-9.98h-0.06v9.98h-2.26V16.9z"/>
					<path class="st9" d="M109.89,28.28c0,0.27,0.03,0.46,0.1,0.57c0.07,0.11,0.21,0.17,0.41,0.17c0.06,0,0.14,0,0.23,0
						c0.09,0,0.19-0.01,0.3-0.04v1.5c-0.08,0.03-0.17,0.05-0.29,0.09c-0.12,0.03-0.24,0.06-0.37,0.08
						c-0.13,0.03-0.25,0.04-0.38,0.06c-0.13,0.01-0.23,0.02-0.32,0.02c-0.44,0-0.81-0.09-1.1-0.27c-0.29-0.18-0.48-0.49-0.57-0.93
						c-0.43,0.42-0.96,0.72-1.59,0.91c-0.63,0.19-1.23,0.29-1.81,0.29c-0.44,0-0.87-0.06-1.27-0.18c-0.41-0.12-0.76-0.3-1.07-0.53
						c-0.31-0.23-0.56-0.53-0.74-0.89s-0.28-0.78-0.28-1.26c0-0.61,0.11-1.1,0.33-1.48s0.51-0.68,0.87-0.89s0.77-0.37,1.22-0.47
						c0.45-0.1,0.9-0.17,1.36-0.22c0.39-0.08,0.77-0.13,1.12-0.16c0.35-0.03,0.67-0.09,0.94-0.16c0.27-0.08,0.49-0.19,0.65-0.35
						c0.16-0.16,0.24-0.4,0.24-0.71c0-0.28-0.07-0.51-0.2-0.68c-0.13-0.18-0.3-0.31-0.49-0.41c-0.2-0.09-0.42-0.16-0.66-0.19
						c-0.24-0.03-0.47-0.05-0.68-0.05c-0.61,0-1.11,0.13-1.5,0.38s-0.61,0.65-0.67,1.18h-2.17c0.04-0.63,0.19-1.16,0.46-1.58
						c0.27-0.42,0.6-0.75,1.02-1.01s0.88-0.43,1.4-0.53c0.52-0.1,1.05-0.15,1.6-0.15c0.48,0,0.96,0.05,1.42,0.15
						c0.47,0.1,0.89,0.27,1.26,0.49c0.37,0.23,0.67,0.52,0.9,0.88s0.34,0.8,0.34,1.32V28.28z M107.72,25.54
						c-0.33,0.22-0.73,0.35-1.22,0.39c-0.48,0.04-0.96,0.11-1.44,0.2c-0.23,0.04-0.45,0.09-0.67,0.16
						c-0.22,0.07-0.41,0.17-0.57,0.29c-0.17,0.12-0.29,0.28-0.39,0.47c-0.1,0.2-0.14,0.43-0.14,0.71c0,0.24,0.07,0.44,0.21,0.61
						c0.14,0.16,0.31,0.29,0.5,0.39c0.2,0.1,0.41,0.16,0.65,0.2s0.45,0.06,0.64,0.06c0.24,0,0.5-0.03,0.78-0.09s0.54-0.17,0.79-0.32
						s0.45-0.34,0.62-0.58c0.16-0.23,0.25-0.52,0.25-0.87V25.54z"/>
					<path class="st9" d="M111.24,20.64h1.63V17.7h2.17v2.94h1.96v1.62h-1.96v5.24c0,0.23,0.01,0.42,0.03,0.59
						c0.02,0.16,0.06,0.3,0.13,0.42c0.07,0.11,0.17,0.2,0.31,0.26c0.14,0.06,0.33,0.09,0.57,0.09c0.15,0,0.3,0,0.46-0.01
						c0.15-0.01,0.3-0.03,0.46-0.07v1.67c-0.24,0.03-0.48,0.05-0.7,0.08s-0.46,0.04-0.7,0.04c-0.57,0-1.03-0.05-1.38-0.16
						c-0.35-0.11-0.62-0.27-0.82-0.48c-0.2-0.21-0.33-0.47-0.4-0.79c-0.07-0.32-0.11-0.68-0.12-1.08v-5.79h-1.63V20.64z"/>
					<path class="st9" d="M118.61,16.9h2.17v2.05h-2.17V16.9z M118.61,20.64h2.17v9.82h-2.17V20.64z"/>
					<path class="st9" d="M127.63,30.73c-0.79,0-1.49-0.13-2.1-0.39c-0.61-0.26-1.13-0.62-1.56-1.07s-0.75-1-0.97-1.63
						c-0.22-0.63-0.33-1.33-0.33-2.09c0-0.75,0.11-1.44,0.33-2.07c0.22-0.63,0.54-1.18,0.97-1.63s0.94-0.81,1.56-1.07
						c0.61-0.26,1.31-0.39,2.1-0.39c0.79,0,1.48,0.13,2.1,0.39c0.61,0.26,1.13,0.62,1.56,1.07s0.75,1,0.97,1.63
						c0.22,0.63,0.33,1.32,0.33,2.07c0,0.76-0.11,1.46-0.33,2.09s-0.54,1.18-0.97,1.63s-0.94,0.81-1.56,1.07
						C129.12,30.6,128.42,30.73,127.63,30.73z M127.63,29.02c0.48,0,0.9-0.1,1.25-0.3c0.35-0.2,0.65-0.47,0.87-0.8s0.4-0.7,0.5-1.11
						c0.11-0.41,0.16-0.83,0.16-1.26c0-0.42-0.05-0.84-0.16-1.25c-0.11-0.42-0.28-0.79-0.5-1.11c-0.23-0.32-0.52-0.59-0.87-0.79
						c-0.35-0.2-0.77-0.3-1.25-0.3c-0.48,0-0.9,0.1-1.25,0.3c-0.35,0.2-0.65,0.47-0.87,0.79c-0.23,0.32-0.4,0.69-0.5,1.11
						c-0.11,0.42-0.16,0.84-0.16,1.25c0,0.43,0.05,0.85,0.16,1.26c0.11,0.41,0.28,0.78,0.5,1.11s0.52,0.59,0.87,0.8
						C126.73,28.92,127.15,29.02,127.63,29.02z"/>
					<path class="st9" d="M134.4,20.64h2.05v1.44l0.04,0.04c0.33-0.54,0.76-0.97,1.29-1.28c0.53-0.31,1.12-0.47,1.77-0.47
						c1.08,0,1.93,0.28,2.55,0.84c0.62,0.56,0.93,1.39,0.93,2.51v6.75h-2.17v-6.17c-0.03-0.77-0.19-1.33-0.49-1.68
						c-0.3-0.35-0.78-0.52-1.42-0.52c-0.37,0-0.7,0.07-0.99,0.2c-0.29,0.13-0.54,0.32-0.74,0.55c-0.2,0.23-0.36,0.51-0.48,0.83
						c-0.11,0.32-0.17,0.65-0.17,1.01v5.79h-2.17V20.64z"/>
					<path class="st9" d="M153.53,28.28c0,0.27,0.03,0.46,0.1,0.57c0.07,0.11,0.21,0.17,0.41,0.17c0.06,0,0.14,0,0.23,0
						c0.09,0,0.19-0.01,0.3-0.04v1.5c-0.08,0.03-0.17,0.05-0.29,0.09c-0.12,0.03-0.24,0.06-0.37,0.08
						c-0.13,0.03-0.25,0.04-0.38,0.06c-0.13,0.01-0.23,0.02-0.32,0.02c-0.44,0-0.81-0.09-1.1-0.27c-0.29-0.18-0.48-0.49-0.57-0.93
						c-0.43,0.42-0.96,0.72-1.59,0.91c-0.63,0.19-1.23,0.29-1.81,0.29c-0.44,0-0.87-0.06-1.27-0.18c-0.41-0.12-0.76-0.3-1.07-0.53
						c-0.31-0.23-0.56-0.53-0.74-0.89s-0.28-0.78-0.28-1.26c0-0.61,0.11-1.1,0.33-1.48s0.51-0.68,0.87-0.89s0.77-0.37,1.22-0.47
						c0.45-0.1,0.9-0.17,1.36-0.22c0.39-0.08,0.77-0.13,1.12-0.16c0.35-0.03,0.67-0.09,0.94-0.16c0.27-0.08,0.49-0.19,0.65-0.35
						c0.16-0.16,0.24-0.4,0.24-0.71c0-0.28-0.07-0.51-0.2-0.68c-0.13-0.18-0.3-0.31-0.49-0.41c-0.2-0.09-0.42-0.16-0.66-0.19
						c-0.24-0.03-0.47-0.05-0.68-0.05c-0.61,0-1.11,0.13-1.5,0.38s-0.61,0.65-0.67,1.18h-2.17c0.04-0.63,0.19-1.16,0.46-1.58
						c0.27-0.42,0.6-0.75,1.02-1.01s0.88-0.43,1.4-0.53c0.52-0.1,1.05-0.15,1.6-0.15c0.48,0,0.96,0.05,1.42,0.15
						c0.47,0.1,0.89,0.27,1.26,0.49c0.37,0.23,0.67,0.52,0.9,0.88s0.34,0.8,0.34,1.32V28.28z M151.36,25.54
						c-0.33,0.22-0.73,0.35-1.22,0.39c-0.48,0.04-0.96,0.11-1.44,0.2c-0.23,0.04-0.45,0.09-0.67,0.16
						c-0.22,0.07-0.41,0.17-0.57,0.29c-0.17,0.12-0.29,0.28-0.39,0.47c-0.1,0.2-0.14,0.43-0.14,0.71c0,0.24,0.07,0.44,0.21,0.61
						c0.14,0.16,0.31,0.29,0.5,0.39c0.2,0.1,0.41,0.16,0.65,0.2s0.45,0.06,0.64,0.06c0.24,0,0.5-0.03,0.78-0.09s0.54-0.17,0.79-0.32
						s0.45-0.34,0.62-0.58c0.16-0.23,0.25-0.52,0.25-0.87V25.54z"/>
					<path class="st9" d="M155.92,16.9h2.17v13.57h-2.17V16.9z"/>
					<path class="st9" d="M166.03,16.9h2.38v13.57h-2.38V16.9z"/>
					<path class="st9" d="M171.01,20.64h2.05v1.44l0.04,0.04c0.33-0.54,0.76-0.97,1.29-1.28c0.53-0.31,1.12-0.47,1.77-0.47
						c1.08,0,1.92,0.28,2.55,0.84c0.62,0.56,0.93,1.39,0.93,2.51v6.75h-2.17v-6.17c-0.03-0.77-0.19-1.33-0.49-1.68
						c-0.3-0.35-0.78-0.52-1.43-0.52c-0.37,0-0.7,0.07-0.99,0.2c-0.29,0.13-0.54,0.32-0.74,0.55c-0.2,0.23-0.36,0.51-0.48,0.83
						c-0.11,0.32-0.17,0.65-0.17,1.01v5.79h-2.17V20.64z"/>
					<path class="st9" d="M183.55,27.31c0.06,0.63,0.3,1.08,0.72,1.33c0.42,0.25,0.92,0.38,1.5,0.38c0.2,0,0.43-0.02,0.69-0.05
						c0.26-0.03,0.5-0.09,0.73-0.18c0.23-0.09,0.42-0.22,0.56-0.39s0.21-0.4,0.2-0.67c-0.01-0.28-0.11-0.51-0.3-0.68
						c-0.19-0.18-0.43-0.32-0.73-0.43s-0.64-0.2-1.02-0.28s-0.77-0.16-1.16-0.25c-0.41-0.09-0.79-0.2-1.17-0.32
						c-0.37-0.13-0.71-0.3-1.01-0.51c-0.3-0.22-0.54-0.49-0.71-0.83c-0.18-0.34-0.27-0.75-0.27-1.24c0-0.53,0.13-0.98,0.39-1.34
						c0.26-0.36,0.59-0.65,0.99-0.87c0.4-0.22,0.84-0.38,1.33-0.47c0.49-0.09,0.95-0.13,1.4-0.13c0.51,0,0.99,0.05,1.45,0.16
						c0.46,0.11,0.88,0.28,1.25,0.52c0.37,0.24,0.68,0.55,0.93,0.94s0.4,0.85,0.47,1.4h-2.26c-0.1-0.52-0.34-0.87-0.71-1.04
						c-0.37-0.18-0.8-0.27-1.28-0.27c-0.15,0-0.33,0.01-0.54,0.04s-0.41,0.07-0.59,0.14c-0.18,0.07-0.34,0.17-0.47,0.3
						s-0.19,0.31-0.19,0.52c0,0.27,0.09,0.48,0.28,0.65c0.18,0.17,0.42,0.3,0.72,0.41s0.64,0.2,1.02,0.28s0.77,0.16,1.18,0.25
						c0.39,0.09,0.78,0.2,1.16,0.32c0.38,0.13,0.72,0.3,1.02,0.51s0.54,0.49,0.72,0.82c0.18,0.33,0.28,0.74,0.28,1.22
						c0,0.58-0.13,1.08-0.4,1.48c-0.27,0.41-0.61,0.73-1.04,0.99c-0.42,0.25-0.9,0.44-1.42,0.55s-1.03,0.17-1.54,0.17
						c-0.62,0-1.19-0.07-1.72-0.21c-0.53-0.14-0.98-0.35-1.37-0.64c-0.39-0.28-0.69-0.64-0.91-1.06c-0.22-0.42-0.34-0.93-0.35-1.51
						H183.55z"/>
					<path class="st9" d="M190.79,20.64h1.63V17.7h2.17v2.94h1.96v1.62h-1.96v5.24c0,0.23,0.01,0.42,0.03,0.59
						c0.02,0.16,0.06,0.3,0.13,0.42s0.17,0.2,0.31,0.26c0.14,0.06,0.33,0.09,0.57,0.09c0.15,0,0.3,0,0.46-0.01
						c0.15-0.01,0.3-0.03,0.46-0.07v1.67c-0.24,0.03-0.48,0.05-0.7,0.08c-0.23,0.03-0.46,0.04-0.7,0.04c-0.57,0-1.03-0.05-1.38-0.16
						c-0.35-0.11-0.62-0.27-0.82-0.48s-0.33-0.47-0.4-0.79s-0.11-0.68-0.12-1.08v-5.79h-1.63V20.64z"/>
					<path class="st9" d="M198.16,16.9h2.17v2.05h-2.17V16.9z M198.16,20.64h2.17v9.82h-2.17V20.64z"/>
					<path class="st9" d="M201.69,20.64h1.63V17.7h2.17v2.94h1.96v1.62h-1.96v5.24c0,0.23,0.01,0.42,0.03,0.59
						c0.02,0.16,0.06,0.3,0.13,0.42s0.17,0.2,0.31,0.26c0.14,0.06,0.33,0.09,0.57,0.09c0.15,0,0.3,0,0.46-0.01
						c0.15-0.01,0.3-0.03,0.46-0.07v1.67c-0.24,0.03-0.48,0.05-0.7,0.08c-0.23,0.03-0.46,0.04-0.7,0.04c-0.57,0-1.03-0.05-1.38-0.16
						c-0.35-0.11-0.62-0.27-0.82-0.48s-0.33-0.47-0.4-0.79s-0.11-0.68-0.12-1.08v-5.79h-1.63V20.64z"/>
					<path class="st9" d="M217.63,30.46h-2.13V29.1h-0.04c-0.27,0.49-0.66,0.89-1.19,1.19s-1.06,0.45-1.61,0.45
						c-1.29,0-2.23-0.32-2.8-0.96c-0.58-0.64-0.87-1.61-0.87-2.9v-6.23h2.17v6.02c0,0.86,0.17,1.47,0.49,1.82
						c0.33,0.36,0.79,0.53,1.39,0.53c0.46,0,0.84-0.07,1.14-0.21c0.3-0.14,0.55-0.33,0.74-0.56c0.19-0.23,0.33-0.52,0.41-0.85
						c0.08-0.33,0.12-0.68,0.12-1.06v-5.7h2.17V30.46z"/>
					<path class="st9" d="M218.93,20.64h1.63V17.7h2.17v2.94h1.96v1.62h-1.96v5.24c0,0.23,0.01,0.42,0.03,0.59
						c0.02,0.16,0.06,0.3,0.13,0.42s0.17,0.2,0.31,0.26c0.14,0.06,0.33,0.09,0.57,0.09c0.15,0,0.3,0,0.46-0.01
						c0.15-0.01,0.3-0.03,0.46-0.07v1.67c-0.24,0.03-0.48,0.05-0.7,0.08c-0.23,0.03-0.46,0.04-0.7,0.04c-0.57,0-1.03-0.05-1.38-0.16
						c-0.35-0.11-0.62-0.27-0.82-0.48s-0.33-0.47-0.4-0.79s-0.11-0.68-0.12-1.08v-5.79h-1.63V20.64z"/>
					<path class="st9" d="M227.93,26.11c0,0.38,0.05,0.75,0.16,1.1s0.27,0.67,0.48,0.93c0.22,0.27,0.49,0.48,0.82,0.64
						s0.72,0.24,1.18,0.24c0.63,0,1.14-0.14,1.53-0.41c0.39-0.27,0.67-0.68,0.86-1.23h2.05c-0.11,0.53-0.31,1.01-0.59,1.42
						c-0.28,0.42-0.61,0.77-1.01,1.05s-0.83,0.5-1.32,0.65c-0.49,0.15-1,0.22-1.53,0.22c-0.77,0-1.46-0.13-2.05-0.38
						s-1.1-0.61-1.51-1.06c-0.41-0.46-0.72-1-0.93-1.63c-0.21-0.63-0.31-1.33-0.31-2.09c0-0.7,0.11-1.36,0.33-1.99
						s0.54-1.18,0.95-1.65c0.41-0.48,0.91-0.85,1.49-1.13c0.58-0.28,1.24-0.42,1.98-0.42c0.77,0,1.47,0.16,2.08,0.48
						c0.61,0.32,1.12,0.75,1.53,1.28c0.41,0.53,0.7,1.14,0.88,1.83s0.23,1.4,0.14,2.14H227.93z M232.99,24.69
						c-0.03-0.34-0.1-0.67-0.22-0.99c-0.12-0.32-0.28-0.59-0.49-0.83s-0.46-0.42-0.76-0.57c-0.3-0.15-0.63-0.22-1-0.22
						c-0.38,0-0.73,0.07-1.04,0.2c-0.31,0.13-0.58,0.32-0.8,0.55s-0.4,0.51-0.53,0.83c-0.13,0.32-0.21,0.66-0.22,1.03H232.99z"/>
					<path class="st9" d="M238.44,27.31c0.06,0.63,0.3,1.08,0.72,1.33c0.42,0.25,0.92,0.38,1.5,0.38c0.2,0,0.43-0.02,0.69-0.05
						c0.26-0.03,0.5-0.09,0.73-0.18c0.23-0.09,0.42-0.22,0.56-0.39s0.21-0.4,0.2-0.67c-0.01-0.28-0.11-0.51-0.3-0.68
						c-0.19-0.18-0.43-0.32-0.73-0.43s-0.64-0.2-1.02-0.28s-0.77-0.16-1.16-0.25c-0.41-0.09-0.79-0.2-1.17-0.32
						c-0.37-0.13-0.71-0.3-1.01-0.51c-0.3-0.22-0.54-0.49-0.71-0.83c-0.18-0.34-0.27-0.75-0.27-1.24c0-0.53,0.13-0.98,0.39-1.34
						c0.26-0.36,0.59-0.65,0.99-0.87c0.4-0.22,0.84-0.38,1.33-0.47c0.49-0.09,0.95-0.13,1.4-0.13c0.51,0,0.99,0.05,1.45,0.16
						c0.46,0.11,0.88,0.28,1.25,0.52c0.37,0.24,0.68,0.55,0.93,0.94s0.4,0.85,0.47,1.4h-2.26c-0.1-0.52-0.34-0.87-0.71-1.04
						c-0.37-0.18-0.8-0.27-1.28-0.27c-0.15,0-0.33,0.01-0.54,0.04s-0.41,0.07-0.59,0.14c-0.18,0.07-0.34,0.17-0.47,0.3
						s-0.19,0.31-0.19,0.52c0,0.27,0.09,0.48,0.28,0.65c0.18,0.17,0.42,0.3,0.72,0.41s0.64,0.2,1.02,0.28s0.77,0.16,1.18,0.25
						c0.39,0.09,0.78,0.2,1.16,0.32c0.38,0.13,0.72,0.3,1.02,0.51s0.54,0.49,0.72,0.82c0.18,0.33,0.28,0.74,0.28,1.22
						c0,0.58-0.13,1.08-0.4,1.48c-0.27,0.41-0.61,0.73-1.04,0.99c-0.42,0.25-0.9,0.44-1.42,0.55s-1.03,0.17-1.54,0.17
						c-0.62,0-1.19-0.07-1.72-0.21c-0.53-0.14-0.98-0.35-1.37-0.64c-0.39-0.28-0.69-0.64-0.91-1.06c-0.22-0.42-0.34-0.93-0.35-1.51
						H238.44z"/>
					<path class="st9" d="M256.45,30.73c-0.79,0-1.48-0.13-2.1-0.39c-0.62-0.26-1.13-0.62-1.56-1.07s-0.75-1-0.97-1.63
						s-0.33-1.33-0.33-2.09c0-0.75,0.11-1.44,0.33-2.07c0.22-0.63,0.54-1.18,0.97-1.63s0.94-0.81,1.56-1.07
						c0.61-0.26,1.31-0.39,2.1-0.39c0.79,0,1.49,0.13,2.1,0.39c0.61,0.26,1.13,0.62,1.56,1.07c0.42,0.46,0.75,1,0.97,1.63
						c0.22,0.63,0.33,1.32,0.33,2.07c0,0.76-0.11,1.46-0.33,2.09s-0.54,1.18-0.97,1.63c-0.42,0.46-0.94,0.81-1.56,1.07
						C257.94,30.6,257.24,30.73,256.45,30.73z M256.45,29.02c0.48,0,0.9-0.1,1.25-0.3c0.35-0.2,0.65-0.47,0.87-0.8
						c0.23-0.33,0.4-0.7,0.5-1.11c0.11-0.41,0.16-0.83,0.16-1.26c0-0.42-0.05-0.84-0.16-1.25s-0.28-0.79-0.5-1.11
						c-0.23-0.32-0.52-0.59-0.87-0.79c-0.36-0.2-0.77-0.3-1.25-0.3s-0.9,0.1-1.25,0.3c-0.35,0.2-0.65,0.47-0.87,0.79
						c-0.23,0.32-0.4,0.69-0.5,1.11c-0.11,0.42-0.16,0.84-0.16,1.25c0,0.43,0.05,0.85,0.16,1.26c0.11,0.41,0.28,0.78,0.5,1.11
						c0.23,0.33,0.52,0.59,0.87,0.8C255.55,28.92,255.97,29.02,256.45,29.02z"/>
					<path class="st9" d="M262.25,20.64h1.62v-0.82c0-0.62,0.08-1.12,0.23-1.51c0.15-0.39,0.35-0.68,0.61-0.89
						c0.25-0.21,0.54-0.35,0.86-0.42c0.32-0.07,0.66-0.1,1.02-0.1c0.7,0,1.2,0.04,1.52,0.13v1.69c-0.14-0.04-0.29-0.07-0.45-0.09
						s-0.34-0.03-0.56-0.03c-0.29,0-0.54,0.07-0.75,0.21c-0.21,0.14-0.31,0.41-0.31,0.82v1.01h1.84v1.62h-1.84v8.21h-2.17v-8.21
						h-1.62V20.64z"/>
					<path class="st9" d="M274.73,16.9h2.38v5.4h6.17v-5.4h2.38v13.57h-2.38v-6.12h-6.17v6.12h-2.38V16.9z"/>
					<path class="st9" d="M289.89,26.11c0,0.38,0.05,0.75,0.16,1.1s0.27,0.67,0.48,0.93c0.22,0.27,0.49,0.48,0.82,0.64
						s0.72,0.24,1.18,0.24c0.63,0,1.14-0.14,1.53-0.41c0.39-0.27,0.67-0.68,0.86-1.23h2.05c-0.11,0.53-0.31,1.01-0.59,1.42
						c-0.28,0.42-0.61,0.77-1.01,1.05s-0.83,0.5-1.32,0.65c-0.49,0.15-1,0.22-1.53,0.22c-0.77,0-1.46-0.13-2.05-0.38
						s-1.1-0.61-1.51-1.06c-0.41-0.46-0.72-1-0.93-1.63c-0.21-0.63-0.31-1.33-0.31-2.09c0-0.7,0.11-1.36,0.33-1.99
						s0.54-1.18,0.95-1.65c0.41-0.48,0.91-0.85,1.49-1.13c0.58-0.28,1.24-0.42,1.98-0.42c0.77,0,1.47,0.16,2.08,0.48
						c0.61,0.32,1.12,0.75,1.53,1.28c0.41,0.53,0.7,1.14,0.88,1.83s0.23,1.4,0.14,2.14H289.89z M294.94,24.69
						c-0.03-0.34-0.1-0.67-0.22-0.99c-0.12-0.32-0.28-0.59-0.49-0.83s-0.46-0.42-0.76-0.57c-0.3-0.15-0.63-0.22-1-0.22
						c-0.38,0-0.73,0.07-1.04,0.2c-0.31,0.13-0.58,0.32-0.8,0.55s-0.4,0.51-0.53,0.83c-0.13,0.32-0.21,0.66-0.22,1.03H294.94z"/>
					<path class="st9" d="M306.99,28.28c0,0.27,0.03,0.46,0.1,0.57c0.07,0.11,0.21,0.17,0.41,0.17c0.06,0,0.14,0,0.23,0
						c0.09,0,0.19-0.01,0.3-0.04v1.5c-0.08,0.03-0.17,0.05-0.29,0.09c-0.12,0.03-0.24,0.06-0.37,0.08
						c-0.13,0.03-0.25,0.04-0.38,0.06c-0.13,0.01-0.23,0.02-0.32,0.02c-0.44,0-0.81-0.09-1.1-0.27c-0.29-0.18-0.48-0.49-0.57-0.93
						c-0.43,0.42-0.96,0.72-1.59,0.91c-0.63,0.19-1.23,0.29-1.81,0.29c-0.44,0-0.87-0.06-1.27-0.18c-0.41-0.12-0.76-0.3-1.07-0.53
						c-0.31-0.23-0.56-0.53-0.74-0.89s-0.28-0.78-0.28-1.26c0-0.61,0.11-1.1,0.33-1.48s0.51-0.68,0.87-0.89s0.77-0.37,1.22-0.47
						c0.45-0.1,0.9-0.17,1.36-0.22c0.39-0.08,0.77-0.13,1.12-0.16c0.35-0.03,0.67-0.09,0.94-0.16c0.27-0.08,0.49-0.19,0.65-0.35
						c0.16-0.16,0.24-0.4,0.24-0.71c0-0.28-0.07-0.51-0.2-0.68s-0.3-0.31-0.49-0.41c-0.2-0.09-0.42-0.16-0.66-0.19
						c-0.24-0.03-0.47-0.05-0.68-0.05c-0.61,0-1.11,0.13-1.5,0.38s-0.61,0.65-0.67,1.18h-2.17c0.04-0.63,0.19-1.16,0.46-1.58
						c0.27-0.42,0.6-0.75,1.02-1.01c0.41-0.25,0.88-0.43,1.4-0.53c0.52-0.1,1.05-0.15,1.6-0.15c0.48,0,0.96,0.05,1.43,0.15
						c0.47,0.1,0.89,0.27,1.26,0.49c0.37,0.23,0.67,0.52,0.9,0.88c0.23,0.36,0.34,0.8,0.34,1.32V28.28z M304.83,25.54
						c-0.33,0.22-0.74,0.35-1.22,0.39c-0.48,0.04-0.96,0.11-1.44,0.2c-0.23,0.04-0.45,0.09-0.67,0.16
						c-0.22,0.07-0.41,0.17-0.57,0.29c-0.16,0.12-0.29,0.28-0.39,0.47c-0.09,0.2-0.14,0.43-0.14,0.71c0,0.24,0.07,0.44,0.21,0.61
						c0.14,0.16,0.31,0.29,0.5,0.39c0.2,0.1,0.41,0.16,0.65,0.2s0.45,0.06,0.64,0.06c0.24,0,0.5-0.03,0.78-0.09s0.54-0.17,0.79-0.32
						s0.45-0.34,0.62-0.58c0.16-0.23,0.25-0.52,0.25-0.87V25.54z"/>
					<path class="st9" d="M309.38,16.9h2.17v13.57h-2.17V16.9z"/>
					<path class="st9" d="M312.92,20.64h1.63V17.7h2.17v2.94h1.96v1.62h-1.96v5.24c0,0.23,0.01,0.42,0.03,0.59
						c0.02,0.16,0.06,0.3,0.13,0.42s0.17,0.2,0.31,0.26c0.14,0.06,0.33,0.09,0.57,0.09c0.15,0,0.3,0,0.46-0.01
						c0.15-0.01,0.3-0.03,0.46-0.07v1.67c-0.24,0.03-0.48,0.05-0.7,0.08c-0.23,0.03-0.46,0.04-0.7,0.04c-0.57,0-1.03-0.05-1.38-0.16
						c-0.35-0.11-0.62-0.27-0.82-0.48s-0.33-0.47-0.4-0.79s-0.11-0.68-0.12-1.08v-5.79h-1.63V20.64z"/>
					<path class="st9" d="M320.23,16.9h2.17v5.04h0.04c0.27-0.44,0.66-0.81,1.19-1.11c0.53-0.3,1.11-0.45,1.76-0.45
						c1.08,0,1.92,0.28,2.55,0.84c0.62,0.56,0.93,1.39,0.93,2.51v6.75h-2.17v-6.17c-0.03-0.77-0.19-1.33-0.49-1.68
						c-0.3-0.35-0.78-0.52-1.43-0.52c-0.37,0-0.7,0.07-0.99,0.2c-0.29,0.13-0.54,0.32-0.74,0.55c-0.2,0.23-0.36,0.51-0.48,0.83
						c-0.11,0.32-0.17,0.65-0.17,1.01v5.79h-2.17V16.9z"/>
				</g>
			</g>
		</g>
		<g id="_x5B_nih_x5D_-notagline_1_" class="st5">
			<g id="_x5B_nih_x5D_-notagline-white">
				<text transform="matrix(1 0 0 1 86.8022 30.4648)" class="st10 st3 st4">National Institutes of Health</text>
			</g>
			<g id="_x5B_nih_x5D_-notagline-black" class="st6">
				<text transform="matrix(1 0 0 1 86.8022 30.4648)" class="st3 st4">National Institutes of Health</text>
			</g>
			<g id="_x5B_nih_x5D_-notagline-blue" class="st6">
				<text transform="matrix(1 0 0 1 86.8022 30.4648)" class="st8 st3 st4">National Institutes of Health</text>
			</g>
			<g id="_x5B_nih_x5D_-notagline" class="st6">
				<text transform="matrix(1 0 0 1 86.8022 30.4648)" class="st9 st3 st4">National Institutes of Health</text>
			</g>
		</g>
	</g>
	<g id="Badges">
		<g id="White">
			<path class="st0" d="M58.24,50l13.69-25.02L58.28,0h3.42c1.87,0,4.14,1.36,5.05,3.01l12,21.97L66.71,46.99
				C65.8,48.65,63.53,50,61.66,50H58.24z"/>
			<path class="st0" d="M54.89,13.88v22.35h-3.87V26.15H40.98v10.08h-3.87V13.88h3.87v8.89h10.05v-8.89H54.89z M33.24,36.23h-3.87
				V13.88h3.87V36.23z M25.57,36.23h-4.08L11.43,19.79h-0.09v16.44H7.66V13.88h4.08l10.08,16.47h0.06V13.88h3.68V36.23z
				 M68.52,24.98L54.86,0H4.55C2.04,0,0,2.06,0,4.6V45.4C0,47.94,2.04,50,4.55,50h50.27L68.52,24.98z"/>
		</g>
		<g id="Black" class="st5">
			<path class="st11" d="M58.24,50l13.69-25.02L58.28,0h3.42c1.87,0,4.14,1.36,5.05,3.01l12,21.97L66.71,46.99
				C65.8,48.65,63.53,50,61.66,50H58.24z"/>
			<path class="st11" d="M54.89,13.88v22.35h-3.87V26.15H40.98v10.08h-3.87V13.88h3.87v8.89h10.05v-8.89H54.89z M33.24,36.23h-3.87
				V13.88h3.87V36.23z M25.57,36.23h-4.08L11.43,19.79h-0.09v16.44H7.66V13.88h4.08l10.08,16.47h0.06V13.88h3.68V36.23z
				 M68.52,24.98L54.86,0H4.55C2.04,0,0,2.06,0,4.6V45.4C0,47.94,2.04,50,4.55,50h50.27L68.52,24.98z"/>
		</g>
		<g id="Blue" class="st5">
			<path class="st7" d="M58.24,50l13.69-25.02L58.28,0h3.42c1.87,0,4.14,1.36,5.05,3.01l12,21.97L66.71,46.99
				C65.8,48.65,63.53,50,61.66,50H58.24z"/>
			<path class="st7" d="M54.89,13.88v22.35h-3.87V26.15H40.98v10.08h-3.87V13.88h3.87v8.89h10.05v-8.89H54.89z M33.24,36.23h-3.87
				V13.88h3.87V36.23z M25.57,36.23h-4.08L11.43,19.79h-0.09v16.44H7.66V13.88h4.08l10.08,16.47h0.06V13.88h3.68V36.23z
				 M68.52,24.98L54.86,0H4.55C2.04,0,0,2.06,0,4.6V45.4C0,47.94,2.04,50,4.55,50h50.27L68.52,24.98z"/>
		</g>
		<g id="Colored">
			<path class="st8" d="M58.24,50l13.69-25.02L58.28,0h3.42c1.87,0,4.14,1.36,5.05,3.01l12,21.97L66.71,46.99
				C65.8,48.65,63.53,50,61.66,50H58.24z"/>
			<path class="st9" d="M54.89,13.88v22.35h-3.87V26.15H40.98v10.08h-3.87V13.88h3.87v8.89h10.05v-8.89H54.89z M33.24,36.23h-3.87
				V13.88h3.87V36.23z M25.57,36.23h-4.08L11.43,19.79h-0.09v16.44H7.66V13.88h4.08l10.08,16.47h0.06V13.88h3.68V36.23z
				 M68.52,24.98L54.86,0H4.55C2.04,0,0,2.06,0,4.6V45.4C0,47.94,2.04,50,4.55,50h50.27L68.52,24.98z"/>
		</g>
	</g>
</g>
<g id="Guides">
</g>
</svg>
